<?xml version="1.0" standalone="no"?>
<!DOCTYPE svg PUBLIC "-//W3C//DTD SVG 20010904//EN"
 "http://www.w3.org/TR/2001/REC-SVG-20010904/DTD/svg10.dtd">
<svg version="1.0" xmlns="http://www.w3.org/2000/svg"
 width="338.000000pt" height="338.000000pt" viewBox="0 0 338.000000 338.000000"
 preserveAspectRatio="xMidYMid meet">
<metadata>
Created by potrace 1.11, written by Peter Selinger 2001-2013
</metadata>
<g transform="translate(0.000000,338.000000) scale(0.100000,-0.100000)"
fill="#000000" stroke="none">
<path d="M2472 2878 c-3 -72 -48 -135 -109 -153 -20 -6 -23 -3 -23 25 0 17 -7
47 -15 67 l-16 37 -17 -35 c-21 -39 -108 -89 -156 -89 -45 0 -193 -27 -246
-45 -130 -44 -250 -203 -250 -333 0 -68 -2 -70 -78 -59 -134 18 -360 -33 -475
-106 -75 -48 -172 -159 -212 -242 -78 -162 -67 -374 30 -538 26 -45 26 -45 9
-97 -14 -42 -15 -58 -5 -90 24 -81 134 -151 248 -158 l62 -4 -13 -27 c-8 -15
-26 -33 -39 -40 -43 -23 -42 -82 1 -112 12 -9 21 -32 25 -64 6 -43 4 -52 -13
-63 -38 -24 -16 -73 40 -86 14 -3 58 -2 98 2 52 6 78 5 90 -4 83 -58 309 -57
429 1 49 24 54 25 75 11 45 -31 132 -17 182 29 30 27 36 39 36 74 0 55 -29
109 -83 157 -39 34 -45 45 -50 93 -4 30 -21 84 -40 122 l-34 68 47 49 c100
104 140 214 142 397 l2 110 56 3 c172 8 275 83 363 264 48 98 75 128 136 149
20 7 41 7 65 1 42 -12 44 -7 16 47 -18 36 -87 101 -106 101 -29 1 -34 17 -18
61 12 30 17 76 17 149 0 88 -4 117 -26 183 -30 86 -67 148 -103 172 -35 23
-41 19 -42 -27z m-1433 -1154 c42 -35 55 -88 55 -226 1 -113 2 -118 31 -160
77 -110 228 -113 250 -3 5 27 4 28 -7 11 -31 -48 -57 -66 -93 -66 -52 0 -92
25 -126 78 -72 113 -7 221 106 178 24 -10 49 -24 55 -31 7 -8 17 -12 22 -9 18
11 56 -37 88 -111 l32 -74 -47 -63 c-26 -35 -57 -82 -68 -105 -23 -46 -30 -48
-147 -44 -105 5 -201 47 -231 103 -17 31 -15 88 5 127 17 32 17 33 -13 79 -44
70 -76 169 -67 213 12 64 68 128 113 129 6 0 25 -12 42 -26z m464 -473 c-49
-61 -63 -71 -63 -48 0 17 98 123 106 114 3 -3 -16 -33 -43 -66z m367 -76 c11
-13 10 -14 -4 -9 -19 7 -21 -7 -4 -24 6 -6 9 -14 6 -18 -10 -9 -28 33 -22 50
8 20 9 20 24 1z m-64 -32 c-3 -16 -2 -34 3 -42 14 -21 59 -16 87 9 13 13 24
19 24 12 0 -17 -50 -52 -76 -52 -41 0 -65 41 -48 84 10 26 16 18 10 -11z m-36
-30 c-1 -33 -6 -42 -46 -72 -48 -36 -195 -101 -230 -101 l-21 0 20 43 c23 48
55 87 72 87 7 0 25 12 41 27 17 16 50 31 84 38 82 18 80 19 80 -22z m-370 7
c0 -5 -4 -10 -10 -10 -5 0 -10 5 -10 10 0 6 5 10 10 10 6 0 10 -4 10 -10z
m557 -115 c3 -29 3 -69 -1 -89 -6 -31 -14 -40 -59 -62 -45 -23 -68 -27 -162
-31 -113 -4 -215 11 -222 33 -2 7 15 14 42 18 68 11 199 80 236 126 21 25 42
40 64 44 19 4 44 15 57 25 29 24 37 13 45 -64z m-598 23 c-8 -14 -14 -18 -17
-10 -4 13 17 46 25 38 3 -2 -1 -15 -8 -28z m-26 -48 c14 -13 30 -19 43 -16 24
6 50 -17 39 -34 -8 -13 -35 -24 -82 -34 -30 -7 -32 -6 -38 27 -6 33 0 77 11
77 3 0 15 -9 27 -20z m112 7 c11 -9 14 -16 8 -20 -6 -4 -22 2 -34 13 -18 14
-20 19 -8 20 8 0 23 -6 34 -13z m-178 -79 c-3 -22 -4 -21 -11 4 -5 16 -5 36 0
45 7 16 8 15 11 -4 3 -13 3 -33 0 -45z m-81 15 c-11 -11 -19 6 -11 24 8 17 8
17 12 0 3 -10 2 -21 -1 -24z m44 5 c0 -21 -3 -29 -10 -22 -5 5 -7 19 -4 32 9
31 14 27 14 -10z"/>
<path d="M2318 1554 c-21 -13 -38 -28 -39 -32 -1 -4 -2 -63 -4 -132 -2 -106
-5 -131 -24 -165 -26 -48 -27 -89 -3 -113 17 -17 20 -44 26 -228 4 -120 12
-214 18 -221 13 -16 80 -17 95 -2 8 8 10 69 6 211 -7 212 -5 220 44 281 18 22
23 41 23 87 0 64 -18 84 -50 55 -34 -30 -43 -19 -36 43 4 31 9 99 13 150 6 86
5 92 -13 91 -10 0 -36 -11 -56 -25z m29 -64 c-1 -13 -8 -20 -22 -20 -18 1 -19
1 -2 11 9 5 17 15 17 22 0 7 -4 6 -10 -3 -5 -8 -10 -10 -10 -4 0 6 3 14 6 17
11 11 23 -2 21 -23z m70 -297 c-11 -10 -47 9 -47 25 1 16 2 15 11 0 14 -25 33
-23 19 1 -7 14 -6 21 3 24 12 4 24 -39 14 -50z m-57 15 c0 -6 -3 -9 -6 -5 -4
3 -13 -1 -21 -9 -15 -14 -33 -11 -33 7 0 11 41 29 53 22 4 -2 7 -9 7 -15z
m-56 -62 c-3 -8 -12 -12 -21 -9 -14 5 -13 8 3 20 16 11 16 13 1 13 -11 0 -14
5 -10 15 5 14 8 13 19 -4 8 -11 11 -26 8 -35z m62 -3 c-3 -22 -34 -29 -50 -13
-8 9 -6 11 12 5 16 -5 22 -2 22 9 0 9 4 16 9 16 5 0 8 -8 7 -17z m-16 -116 c0
-35 3 -125 7 -200 6 -133 5 -137 -14 -137 -17 0 -21 9 -27 61 -3 34 -6 124 -6
200 0 132 1 139 20 139 18 0 20 -7 20 -63z"/>
<path d="M2310 1199 c0 -5 5 -7 10 -4 6 3 10 8 10 11 0 2 -4 4 -10 4 -5 0 -10
-5 -10 -11z"/>
<path d="M666 1117 c-27 -27 -43 -142 -24 -182 11 -25 64 -55 95 -54 31 1 117
54 133 82 12 22 13 32 2 59 -11 30 -10 34 8 47 49 33 8 70 -65 58 -19 -3 -37
-1 -40 4 -12 19 -85 10 -109 -14z m110 -29 c7 -5 23 -4 37 1 25 10 26 9 15
-15 -9 -19 -9 -30 0 -45 24 -38 15 -57 -44 -86 -52 -25 -58 -26 -82 -12 -23
12 -27 22 -30 67 -2 28 2 61 8 72 19 36 63 44 96 18z"/>
</g>
</svg>
